<?xml version="1.0" encoding="UTF-8"?>
<!-- Flat -->
<svg version="1.1" xmlns="http://www.w3.org/2000/svg" xmlns:xlink="http://www.w3.org/1999/xlink" width="170.0787pt" height="170.0787pt" viewBox="0 0 170.0787 170.0787">
<title>Untitled</title>
<polyline points="87.874 45.3543 87.874 72.9921 133.2283 72.2835" fill="none" stroke="rgba(0,0,0,1)" stroke-width="4" stroke-miterlimit="10" />
<polyline points="46.7717 45.3543 128.2677 45.3543 126.1417 89.2913" fill="none" stroke="rgba(0,0,0,1)" stroke-width="4" stroke-miterlimit="10" />
<polyline points="69.4488 29.7638 141.7323 29.7638" fill="none" stroke="rgba(0,0,0,1)" stroke-width="4" stroke-miterlimit="10" />
<polyline points="0 14.1732 0 124.7244" fill="none" stroke="rgba(0,0,0,1)" stroke-width="4" stroke-miterlimit="10" />
<polyline points="77.9528 89.2913 136.063 89.2913" fill="none" stroke="rgba(0,0,0,1)" stroke-width="4" stroke-miterlimit="10" />
<polyline points="4.252 114.8031 138.8976 114.8031" fill="none" stroke="rgba(0,0,0,1)" stroke-width="4" stroke-miterlimit="10" />
<polyline points="41.1024 110.5512 52.4409 133.2283" fill="none" stroke="rgba(0,0,0,1)" stroke-width="4" stroke-miterlimit="10" />
<polyline points="59.5276 82.2047 46.7717 111.9685 33.3071 125.4331 1.4173 138.8976" fill="none" stroke="rgba(0,0,0,1)" stroke-width="4" stroke-miterlimit="10" />
<polyline points="41.1024 35.4331 12.7559 63.7795" fill="none" stroke="rgba(0,0,0,1)" stroke-width="4" stroke-miterlimit="10" />
<polyline points="120.4724 113.3858 140.315 133.2283" fill="none" stroke="rgba(0,0,0,1)" stroke-width="4" stroke-miterlimit="10" />
<polyline points="83.622 73.7008 69.4488 87.874" fill="none" stroke="rgba(0,0,0,1)" stroke-width="4" stroke-miterlimit="10" />
<polyline points="14.1732 39.685 14.8819 109.8425 2.8346 140.315" fill="none" stroke="rgba(0,0,0,1)" stroke-width="4" stroke-miterlimit="10" />
<polyline points="2.8346 19.8425 2.8346 114.8031" fill="none" stroke="rgba(0,0,0,1)" stroke-width="4" stroke-miterlimit="10" />
<polyline points="66.6142 19.8425 137.4803 19.8425" fill="none" stroke="rgba(0,0,0,1)" stroke-width="4" stroke-miterlimit="10" />
<polyline points="24.0945 69.4488 53.8583 99.2126" fill="none" stroke="rgba(0,0,0,1)" stroke-width="4" stroke-miterlimit="10" />
<polyline points="114.8031 114.8031 137.4803 137.4803" fill="none" stroke="rgba(0,0,0,1)" stroke-width="4" stroke-miterlimit="10" />
<polyline points="25.5118 72.2835 116.2205 72.2835 113.3858 140.315" fill="none" stroke="rgba(0,0,0,1)" stroke-width="4" stroke-miterlimit="10" />
<polyline points="42.5197 12.7559 71.5748 11.3386 69.4488 130.3937" fill="none" stroke="rgba(0,0,0,1)" stroke-width="4" stroke-miterlimit="10" />
<polyline points="53.8583 5.6693 53.8583 39.685" fill="none" stroke="rgba(0,0,0,1)" stroke-width="4" stroke-miterlimit="10" />
<polyline points="41.1024 85.0394 68.0315 111.9685" fill="none" stroke="rgba(0,0,0,1)" stroke-width="4" stroke-miterlimit="10" />
<polyline points="69.4488 41.1024 117.6378 41.1024 115.5118 79.3701 137.4803 77.9528" fill="none" stroke="rgba(0,0,0,1)" stroke-width="4" stroke-miterlimit="10" />
<polyline points="34.0157 5.6693 34.0157 140.315" fill="none" stroke="rgba(0,0,0,1)" stroke-width="4" stroke-miterlimit="10" />
<polyline points="96.378 4.252 96.378 140.315" fill="none" stroke="rgba(0,0,0,1)" stroke-width="4" stroke-miterlimit="10" />
</svg>