<?xml version="1.0" encoding="UTF-8"?>
<!-- Flat -->
<svg version="1.1" xmlns="http://www.w3.org/2000/svg" xmlns:xlink="http://www.w3.org/1999/xlink" width="170.0787pt" height="170.0787pt" viewBox="0 0 170.0787 170.0787">
<title>Untitled</title>
<polyline points="92.126 5.6693 81.4961 29.7638 48.189 60.9449" fill="none" stroke="rgba(0,0,0,1)" stroke-width="4" stroke-miterlimit="10" />
<polyline points="32.5984 100.6299 128.9764 100.6299 126.1417 138.8976" fill="none" stroke="rgba(0,0,0,1)" stroke-width="4" stroke-miterlimit="10" />
<polyline points="100.6299 25.5118 117.6378 42.5197" fill="none" stroke="rgba(0,0,0,1)" stroke-width="4" stroke-miterlimit="10" />
<polyline points="114.8031 36.8504 114.8031 140.315" fill="none" stroke="rgba(0,0,0,1)" stroke-width="4" stroke-miterlimit="10" />
<polyline points="2.8346 36.8504 43.2283 36.8504 41.811 65.1969 24.0945 118.3465 1.4173 138.8976" fill="none" stroke="rgba(0,0,0,1)" stroke-width="4" stroke-miterlimit="10" />
<polyline points="94.9606 90.7087 83.622 117.6378 62.3622 136.063" fill="none" stroke="rgba(0,0,0,1)" stroke-width="4" stroke-miterlimit="10" />
<polyline points="109.1339 34.0157 109.1339 56.6929" fill="none" stroke="rgba(0,0,0,1)" stroke-width="4" stroke-miterlimit="10" />
<polyline points="119.0551 123.3071 137.4803 141.7323" fill="none" stroke="rgba(0,0,0,1)" stroke-width="4" stroke-miterlimit="10" />
<polyline points="114.8031 36.8504 127.5591 62.3622" fill="none" stroke="rgba(0,0,0,1)" stroke-width="4" stroke-miterlimit="10" />
<polyline points="107.7165 80.7874 107.0079 137.4803 138.8976 136.063" fill="none" stroke="rgba(0,0,0,1)" stroke-width="4" stroke-miterlimit="10" />
<polyline points="49.6063 39.685 138.8976 39.685" fill="none" stroke="rgba(0,0,0,1)" stroke-width="4" stroke-miterlimit="10" />
<polyline points="65.1969 9.9213 52.4409 22.6772" fill="none" stroke="rgba(0,0,0,1)" stroke-width="4" stroke-miterlimit="10" />
<polyline points="102.0472 97.7953 116.2205 140.315" fill="none" stroke="rgba(0,0,0,1)" stroke-width="4" stroke-miterlimit="10" />
<polyline points="18.4252 21.2598 53.8583 20.5512 36.1417 46.063 34.0157 106.2992" fill="none" stroke="rgba(0,0,0,1)" stroke-width="4" stroke-miterlimit="10" />
<polyline points="9.9213 56.6929 76.5354 56.6929" fill="none" stroke="rgba(0,0,0,1)" stroke-width="4" stroke-miterlimit="10" />
<polyline points="25.5118 90.7087 2.8346 136.063" fill="none" stroke="rgba(0,0,0,1)" stroke-width="4" stroke-miterlimit="10" />
<polyline points="92.126 80.7874 92.126 140.315" fill="none" stroke="rgba(0,0,0,1)" stroke-width="4" stroke-miterlimit="10" />
<polyline points="35.4331 34.0157 62.3622 34.0157" fill="none" stroke="rgba(0,0,0,1)" stroke-width="4" stroke-miterlimit="10" />
<polyline points="2.8346 15.5906 40.3937 15.5906 38.2677 114.8031" fill="none" stroke="rgba(0,0,0,1)" stroke-width="4" stroke-miterlimit="10" />
<polyline points="110.5512 68.0315 139.6063 68.0315 137.4803 140.315" fill="none" stroke="rgba(0,0,0,1)" stroke-width="4" stroke-miterlimit="10" />
<polyline points="25.5118 5.6693 25.5118 140.315" fill="none" stroke="rgba(0,0,0,1)" stroke-width="4" stroke-miterlimit="10" />
<polyline points="63.7795 11.3386 63.7795 94.9606 48.189 140.315" fill="none" stroke="rgba(0,0,0,1)" stroke-width="4" stroke-miterlimit="10" />
<polyline points="85.0394 17.0079 97.0866 36.1417 102.0472 63.7795" fill="none" stroke="rgba(0,0,0,1)" stroke-width="4" stroke-miterlimit="10" />
<polyline points="43.937 106.2992 8.5039 141.7323" fill="none" stroke="rgba(0,0,0,1)" stroke-width="4" stroke-miterlimit="10" />
<polyline points="56.6929 14.1732 128.2677 14.1732 126.1417 41.1024" fill="none" stroke="rgba(0,0,0,1)" stroke-width="4" stroke-miterlimit="10" />
<polyline points="24.0945 5.6693 24.0945 140.315" fill="none" stroke="rgba(0,0,0,1)" stroke-width="4" stroke-miterlimit="10" />
<polyline points="21.2598 8.5039 5.6693 48.8976 51.7323 44.6457 49.6063 99.2126" fill="none" stroke="rgba(0,0,0,1)" stroke-width="4" stroke-miterlimit="10" />
<polyline points="0 12.7559 42.5197 12.7559" fill="none" stroke="rgba(0,0,0,1)" stroke-width="4" stroke-miterlimit="10" />
<polyline points="55.2756 14.1732 55.2756 68.7402 131.811 66.6142" fill="none" stroke="rgba(0,0,0,1)" stroke-width="4" stroke-miterlimit="10" />
<polyline points="75.1181 4.252 93.5433 22.6772" fill="none" stroke="rgba(0,0,0,1)" stroke-width="4" stroke-miterlimit="10" />
<polyline points="9.9213 49.6063 48.189 49.6063" fill="none" stroke="rgba(0,0,0,1)" stroke-width="4" stroke-miterlimit="10" />
<polyline points="110.5512 28.3465 91.4173 34.0157 74.4094 37.5591 51.0236 43.937" fill="none" stroke="rgba(0,0,0,1)" stroke-width="4" stroke-miterlimit="10" />
<polyline points="42.5197 48.189 90.7087 48.189" fill="none" stroke="rgba(0,0,0,1)" stroke-width="4" stroke-miterlimit="10" />
<polyline points="58.1102 49.6063 58.1102 113.3858 131.811 110.5512" fill="none" stroke="rgba(0,0,0,1)" stroke-width="4" stroke-miterlimit="10" />
<polyline points="15.5906 70.8661 38.9764 70.1575 58.1102 69.4488" fill="none" stroke="rgba(0,0,0,1)" stroke-width="4" stroke-miterlimit="10" />
<polyline points="89.2913 5.6693 89.2913 35.4331" fill="none" stroke="rgba(0,0,0,1)" stroke-width="4" stroke-miterlimit="10" />
<polyline points="69.4488 34.0157 141.7323 34.0157" fill="none" stroke="rgba(0,0,0,1)" stroke-width="4" stroke-miterlimit="10" />
<polyline points="18.4252 73.7008 2.8346 104.8819" fill="none" stroke="rgba(0,0,0,1)" stroke-width="4" stroke-miterlimit="10" />
<polyline points="60.9449 51.0236 140.315 51.0236" fill="none" stroke="rgba(0,0,0,1)" stroke-width="4" stroke-miterlimit="10" />
<polyline points="109.1339 137.4803 130.3937 137.4803" fill="none" stroke="rgba(0,0,0,1)" stroke-width="4" stroke-miterlimit="10" />
<polyline points="49.6063 97.7953 79.3701 97.7953" fill="none" stroke="rgba(0,0,0,1)" stroke-width="4" stroke-miterlimit="10" />
<polyline points="55.2756 92.126 55.2756 141.7323" fill="none" stroke="rgba(0,0,0,1)" stroke-width="4" stroke-miterlimit="10" />
<polyline points="45.3543 107.7165 22.6772 130.3937" fill="none" stroke="rgba(0,0,0,1)" stroke-width="4" stroke-miterlimit="10" />
<polyline points="51.0236 58.1102 124.0157 58.1102 121.8898 119.7638 130.3937 140.315" fill="none" stroke="rgba(0,0,0,1)" stroke-width="4" stroke-miterlimit="10" />
<polyline points="35.4331 34.0157 49.6063 62.3622" fill="none" stroke="rgba(0,0,0,1)" stroke-width="4" stroke-miterlimit="10" />
<polyline points="72.2835 77.9528 131.811 77.9528" fill="none" stroke="rgba(0,0,0,1)" stroke-width="4" stroke-miterlimit="10" />
<polyline points="107.7165 46.7717 107.7165 141.7323" fill="none" stroke="rgba(0,0,0,1)" stroke-width="4" stroke-miterlimit="10" />
<polyline points="53.8583 29.7638 80.0787 29.0551 93.5433 27.6378 111.9685 26.2205 133.2283 25.5118" fill="none" stroke="rgba(0,0,0,1)" stroke-width="4" stroke-miterlimit="10" />
<polyline points="68.0315 124.7244 141.7323 124.7244" fill="none" stroke="rgba(0,0,0,1)" stroke-width="4" stroke-miterlimit="10" />
<polyline points="8.5039 77.9528 58.1102 77.9528" fill="none" stroke="rgba(0,0,0,1)" stroke-width="4" stroke-miterlimit="10" />
<polyline points="24.0945 8.5039 7.0866 42.5197" fill="none" stroke="rgba(0,0,0,1)" stroke-width="4" stroke-miterlimit="10" />
<polyline points="60.9449 87.874 45.3543 119.0551" fill="none" stroke="rgba(0,0,0,1)" stroke-width="4" stroke-miterlimit="10" />
<polyline points="131.811 36.8504 117.6378 79.3701" fill="none" stroke="rgba(0,0,0,1)" stroke-width="4" stroke-miterlimit="10" />
<polyline points="90.7087 87.874 90.7087 138.8976" fill="none" stroke="rgba(0,0,0,1)" stroke-width="4" stroke-miterlimit="10" />
<polyline points="26.9291 4.252 25.5118 94.252 51.0236 116.2205" fill="none" stroke="rgba(0,0,0,1)" stroke-width="4" stroke-miterlimit="10" />
<polyline points="90.7087 66.6142 90.7087 98.5039 102.0472 116.2205 116.9291 130.3937 141.7323 140.315" fill="none" stroke="rgba(0,0,0,1)" stroke-width="4" stroke-miterlimit="10" />
<polyline points="2.8346 32.5984 9.2126 54.5669 14.1732 72.2835" fill="none" stroke="rgba(0,0,0,1)" stroke-width="4" stroke-miterlimit="10" />
<polyline points="8.5039 11.3386 8.5039 84.3307 55.9843 82.2047 54.5669 119.0551 45.3543 140.315" fill="none" stroke="rgba(0,0,0,1)" stroke-width="4" stroke-miterlimit="10" />
<polyline points="26.9291 8.5039 17.0079 42.5197 2.8346 89.2913" fill="none" stroke="rgba(0,0,0,1)" stroke-width="4" stroke-miterlimit="10" />
<polyline points="38.2677 137.4803 72.2835 137.4803" fill="none" stroke="rgba(0,0,0,1)" stroke-width="4" stroke-miterlimit="10" />
<polyline points="110.5512 5.6693 110.5512 140.315" fill="none" stroke="rgba(0,0,0,1)" stroke-width="4" stroke-miterlimit="10" />
<polyline points="65.1969 128.9764 128.9764 128.9764" fill="none" stroke="rgba(0,0,0,1)" stroke-width="4" stroke-miterlimit="10" />
<polyline points="89.2913 124.7244 60.9449 138.8976" fill="none" stroke="rgba(0,0,0,1)" stroke-width="4" stroke-miterlimit="10" />
<polyline points="11.3386 9.9213 11.3386 110.5512" fill="none" stroke="rgba(0,0,0,1)" stroke-width="4" stroke-miterlimit="10" />
<polyline points="107.7165 45.3543 104.8819 85.0394 119.7638 99.2126 138.8976 107.7165" fill="none" stroke="rgba(0,0,0,1)" stroke-width="4" stroke-miterlimit="10" />
<polyline points="22.6772 52.4409 22.6772 91.4173 53.8583 89.2913" fill="none" stroke="rgba(0,0,0,1)" stroke-width="4" stroke-miterlimit="10" />
<polyline points="104.8819 137.4803 127.5591 137.4803" fill="none" stroke="rgba(0,0,0,1)" stroke-width="4" stroke-miterlimit="10" />
<polyline points="109.1339 29.7638 123.3071 43.937" fill="none" stroke="rgba(0,0,0,1)" stroke-width="4" stroke-miterlimit="10" />
<polyline points="66.6142 14.1732 139.6063 14.1732 137.4803 140.315" fill="none" stroke="rgba(0,0,0,1)" stroke-width="4" stroke-miterlimit="10" />
<polyline points="99.2126 4.252 99.2126 43.937" fill="none" stroke="rgba(0,0,0,1)" stroke-width="4" stroke-miterlimit="10" />
<polyline points="89.2913 5.6693 68.0315 48.189" fill="none" stroke="rgba(0,0,0,1)" stroke-width="4" stroke-miterlimit="10" />
<polyline points="124.7244 99.2126 140.315 130.3937" fill="none" stroke="rgba(0,0,0,1)" stroke-width="4" stroke-miterlimit="10" />
<polyline points="131.811 89.2913 97.7953 106.2992" fill="none" stroke="rgba(0,0,0,1)" stroke-width="4" stroke-miterlimit="10" />
<polyline points="62.3622 43.937 133.2283 43.937 131.811 83.622" fill="none" stroke="rgba(0,0,0,1)" stroke-width="4" stroke-miterlimit="10" />
<polyline points="55.2756 68.0315 131.811 68.0315 130.3937 102.0472" fill="none" stroke="rgba(0,0,0,1)" stroke-width="4" stroke-miterlimit="10" />
<polyline points="41.1024 60.9449 123.3071 60.9449 121.8898 100.6299" fill="none" stroke="rgba(0,0,0,1)" stroke-width="4" stroke-miterlimit="10" />
<polyline points="68.0315 55.2756 85.0394 63.7795" fill="none" stroke="rgba(0,0,0,1)" stroke-width="4" stroke-miterlimit="10" />
<polyline points="65.1969 38.2677 70.8661 55.2756" fill="none" stroke="rgba(0,0,0,1)" stroke-width="4" stroke-miterlimit="10" />
<polyline points="66.6142 66.6142 134.6457 66.6142" fill="none" stroke="rgba(0,0,0,1)" stroke-width="4" stroke-miterlimit="10" />
<polyline points="86.4567 41.1024 103.4646 58.1102 136.063 68.0315" fill="none" stroke="rgba(0,0,0,1)" stroke-width="4" stroke-miterlimit="10" />
<polyline points="96.378 63.7795 93.5433 137.4803 140.315 136.063" fill="none" stroke="rgba(0,0,0,1)" stroke-width="4" stroke-miterlimit="10" />
<polyline points="9.9213 42.5197 43.937 42.5197" fill="none" stroke="rgba(0,0,0,1)" stroke-width="4" stroke-miterlimit="10" />
<polyline points="24.0945 102.0472 24.0945 137.4803" fill="none" stroke="rgba(0,0,0,1)" stroke-width="4" stroke-miterlimit="10" />
<polyline points="70.8661 110.5512 77.9528 131.811" fill="none" stroke="rgba(0,0,0,1)" stroke-width="4" stroke-miterlimit="10" />
<polyline points="90.7087 93.5433 61.6535 123.3071 38.2677 133.2283" fill="none" stroke="rgba(0,0,0,1)" stroke-width="4" stroke-miterlimit="10" />
<polyline points="28.3465 90.7087 4.252 138.8976" fill="none" stroke="rgba(0,0,0,1)" stroke-width="4" stroke-miterlimit="10" />
<polyline points="19.8425 68.0315 68.7402 68.0315 66.6142 138.8976" fill="none" stroke="rgba(0,0,0,1)" stroke-width="4" stroke-miterlimit="10" />
<polyline points="7.0866 14.1732 33.3071 12.7559 31.1811 72.2835" fill="none" stroke="rgba(0,0,0,1)" stroke-width="4" stroke-miterlimit="10" />
<polyline points="4.252 38.2677 42.5197 38.2677" fill="none" stroke="rgba(0,0,0,1)" stroke-width="4" stroke-miterlimit="10" />
<polyline points="42.5197 110.5512 49.6063 131.811" fill="none" stroke="rgba(0,0,0,1)" stroke-width="4" stroke-miterlimit="10" />
<polyline points="8.5039 79.3701 59.5276 79.3701" fill="none" stroke="rgba(0,0,0,1)" stroke-width="4" stroke-miterlimit="10" />
<polyline points="73.7008 46.7717 128.9764 46.7717" fill="none" stroke="rgba(0,0,0,1)" stroke-width="4" stroke-miterlimit="10" />
<polyline points="24.0945 87.874 24.0945 140.315" fill="none" stroke="rgba(0,0,0,1)" stroke-width="4" stroke-miterlimit="10" />
<polyline points="97.7953 77.9528 97.7953 140.315" fill="none" stroke="rgba(0,0,0,1)" stroke-width="4" stroke-miterlimit="10" />
<polyline points="68.0315 87.874 133.2283 87.1654 130.3937 140.315" fill="none" stroke="rgba(0,0,0,1)" stroke-width="4" stroke-miterlimit="10" />
<polyline points="31.1811 42.5197 32.5984 125.4331 0 134.6457" fill="none" stroke="rgba(0,0,0,1)" stroke-width="4" stroke-miterlimit="10" />
<polyline points="111.9685 5.6693 111.9685 31.1811" fill="none" stroke="rgba(0,0,0,1)" stroke-width="4" stroke-miterlimit="10" />
<polyline points="4.252 32.5984 17.0079 58.1102" fill="none" stroke="rgba(0,0,0,1)" stroke-width="4" stroke-miterlimit="10" />
<polyline points="26.9291 137.4803 48.189 137.4803" fill="none" stroke="rgba(0,0,0,1)" stroke-width="4" stroke-miterlimit="10" />
<polyline points="114.8031 110.5512 137.4803 133.2283" fill="none" stroke="rgba(0,0,0,1)" stroke-width="4" stroke-miterlimit="10" />
<polyline points="117.6378 14.1732 104.8819 38.2677 107.7165 82.2047" fill="none" stroke="rgba(0,0,0,1)" stroke-width="4" stroke-miterlimit="10" />
<polyline points="104.8819 19.8425 114.8031 39.685" fill="none" stroke="rgba(0,0,0,1)" stroke-width="4" stroke-miterlimit="10" />
<polyline points="110.5512 89.2913 116.2205 106.2992" fill="none" stroke="rgba(0,0,0,1)" stroke-width="4" stroke-miterlimit="10" />
<polyline points="9.9213 69.4488 59.5276 69.4488" fill="none" stroke="rgba(0,0,0,1)" stroke-width="4" stroke-miterlimit="10" />
</svg>